<?xml version="1.0" encoding="UTF-8" standalone="no"?>
<!-- Created with Inkscape (http://www.inkscape.org/) -->

<svg
   width="144"
   height="48"
   viewBox="0 0 38.099999 12.7"
   version="1.1"
   id="svg1"
   inkscape:version="1.3.2 (091e20e, 2023-11-25, custom)"
   sodipodi:docname="GameTitle.svg"
   inkscape:export-filename="GameTitle.png"
   inkscape:export-xdpi="96"
   inkscape:export-ydpi="96"
   xmlns:inkscape="http://www.inkscape.org/namespaces/inkscape"
   xmlns:sodipodi="http://sodipodi.sourceforge.net/DTD/sodipodi-0.dtd"
   xmlns="http://www.w3.org/2000/svg"
   xmlns:svg="http://www.w3.org/2000/svg">
  <sodipodi:namedview
     id="namedview1"
     pagecolor="#b8b8b8"
     bordercolor="#000000"
     borderopacity="0.25"
     inkscape:showpageshadow="2"
     inkscape:pageopacity="0.0"
     inkscape:pagecheckerboard="true"
     inkscape:deskcolor="#d1d1d1"
     inkscape:document-units="px"
     showgrid="true"
     inkscape:zoom="6.0120345"
     inkscape:cx="90.568342"
     inkscape:cy="25.033123"
     inkscape:window-width="2560"
     inkscape:window-height="1369"
     inkscape:window-x="1672"
     inkscape:window-y="-8"
     inkscape:window-maximized="1"
     inkscape:current-layer="layer2">
    <inkscape:grid
       id="grid1"
       units="px"
       originx="0"
       originy="0"
       spacingx="0.26458333"
       spacingy="0.26458333"
       empcolor="#0099e5"
       empopacity="0.30196078"
       color="#000000"
       opacity="0.14901961"
       empspacing="4"
       dotted="false"
       gridanglex="30"
       gridanglez="30"
       visible="true" />
  </sodipodi:namedview>
  <defs
     id="defs1" />
  <g
     inkscape:groupmode="layer"
     id="layer3"
     inkscape:label="OTHER"
     style="display:none">
    <circle
       style="fill:#a51d2d;stroke-width:0.529167;stroke-linejoin:round;stroke-dasharray:2.11666, 2.11666"
       id="path7"
       cx="-7.6729164"
       cy="4.7624998"
       r="2.1166666" />
    <rect
       style="fill:#77767b;stroke-width:0.707129;stroke-linejoin:round;stroke-dasharray:2.8285, 2.8285"
       id="rect4"
       width="2.3151035"
       height="1.3229166"
       x="-8.6981764"
       y="6.0854163"
       ry="0.33072913" />
    <circle
       style="fill:#ffffff;stroke-width:0.396875;stroke-linejoin:round;stroke-dasharray:1.5875, 1.5875"
       id="circle7"
       cx="-7.6729164"
       cy="4.7624998"
       r="1.5875" />
    <path
       style="fill:#ffffff;stroke:#000000;stroke-width:0.132292;stroke-linejoin:round;stroke-dasharray:0.529165, 0.529165;stroke-dashoffset:0"
       d="M -7.6729163,2.1166666 V 3.5537227"
       id="path8" />
    <g
       id="g28">
      <path
         id="path19"
         style="fill:#9141ac;stroke-width:0.529167;stroke-linejoin:round;stroke-dasharray:2.11666, 2.11666"
         inkscape:transform-center-x="-0.26458265"
         inkscape:transform-center-y="-1.7497153"
         d="m -7.6729165,8.4666665 a 0.26458332,0.26458332 0 0 0 -0.2645833,0.2645833 0.26458332,0.26458332 0 0 0 0.2645833,0.2645834 1.5875,1.5875 0 0 1 1.5875,1.5874998 1.5875,1.5875 0 0 1 -0.7198527,1.322917 1.5875,1.5875 0 0 1 -0.1028361,0.05788 1.5875,1.5875 0 0 1 -0.1772502,0.08578 0.29188007,0.29188007 0 0 0 -0.085783,0.201538 0.29188007,0.29188007 0 0 0 0.2883545,0.291455 2.1166666,2.1166666 0 0 0 0.2315104,-0.111621 2.1166666,2.1166666 0 0 0 0.2682007,-0.174149 2.1166666,2.1166666 0 0 0 0.8268229,-1.6738 2.1166666,2.1166666 0 0 0 -2.1037475,-2.1161497 0.26458332,0.26458332 0 0 0 -0.012919,-5.168e-4 z" />
      <path
         id="path14"
         style="fill:#a51d2d;stroke-width:0.529167;stroke-linejoin:round;stroke-dasharray:2.11666, 2.11666"
         d="m -7.6729165,8.4666665 a 2.1166666,2.1166666 0 0 0 -2.1166666,2.1166665 2.1166666,2.1166666 0 0 0 1.0914062,1.846916 v -0.19327 c 0,-0.135755 0.080922,-0.251754 0.197404,-0.302824 a 1.5875,1.5875 0 0 1 -0.7596436,-1.350822 1.5875,1.5875 0 0 1 1.5875,-1.5874998 0.26458332,0.26458332 0 0 0 0.2645833,-0.2645834 0.26458332,0.26458332 0 0 0 -0.2645833,-0.2645833 z" />
      <path
         id="path17"
         style="fill:#77767b;stroke-width:0.707129;stroke-linejoin:round;stroke-dasharray:2.8285, 2.8285"
         d="m -8.3674478,11.90625 c -0.047469,0 -0.092595,0.01005 -0.1333251,0.02791 -0.116482,0.05107 -0.197404,0.167069 -0.197404,0.302824 v 0.193269 0.468189 c 0,0.183224 0.1475056,0.330729 0.3307291,0.330729 h 1.6536458 c 0.1832237,0 0.3307292,-0.147505 0.3307292,-0.330729 v -0.641305 -0.02015 c 0,-0.183224 -0.1475055,-0.33073 -0.3307292,-0.33073 h -0.091467 z m 1.4366048,0.07493 a 1.5875,1.5875 0 0 1 -0.029972,0.01499 1.5875,1.5875 0 0 0 0.029972,-0.01499 z m -1.4267862,0.03049 a 1.5875,1.5875 0 0 0 0.044958,0.02015 1.5875,1.5875 0 0 1 -0.044958,-0.02015 z m 1.2960449,0.03152 a 1.5875,1.5875 0 0 1 -0.038757,0.0155 1.5875,1.5875 0 0 0 0.038757,-0.0155 z m -1.1498006,0.02997 a 1.5875,1.5875 0 0 0 0.059428,0.02015 1.5875,1.5875 0 0 1 -0.059428,-0.02015 z m 1.0133748,0.02067 a 1.5875,1.5875 0 0 1 -0.045475,0.01395 1.5875,1.5875 0 0 0 0.045475,-0.01395 z m -0.8531779,0.02842 a 1.5875,1.5875 0 0 0 0.055811,0.01344 1.5875,1.5875 0 0 1 -0.055811,-0.01344 z m 0.712618,0.0093 a 1.5875,1.5875 0 0 1 -0.046509,0.01033 1.5875,1.5875 0 0 0 0.046509,-0.01033 z m -0.5420858,0.02325 a 1.5875,1.5875 0 0 0 0.045475,0.0062 1.5875,1.5875 0 0 1 -0.045475,-0.0062 z m 0.394808,0.0026 a 1.5875,1.5875 0 0 1 -0.044442,0.0057 1.5875,1.5875 0 0 0 0.044442,-0.0057 z" />
      <circle
         style="fill:none;stroke:#77767b;stroke-width:0.211667;stroke-linejoin:round;stroke-dasharray:none;stroke-dashoffset:0;stroke-opacity:1"
         id="path23"
         cx="-7.4744787"
         cy="13.295313"
         r="0.26458332" />
    </g>
    <g
       id="g27"
       transform="translate(2.0759721,-8.7717361)">
      <path
         id="circle23"
         style="fill:none;stroke:#77767b;stroke-width:0.17788;stroke-linejoin:round"
         d="m -5.9097732,14.485812 a 0.17564311,0.28147676 0 0 0 -0.1756431,-0.281476 0.17564311,0.28147676 0 0 0 -0.1756431,0.281476 0.17564311,0.28147676 0 0 0 0.1756431,0.281476 0.17564311,0.28147676 0 0 0 0.1756431,-0.281476 z"
         inkscape:transform-center-y="0.19831275" />
      <path
         style="fill:none;stroke:#77767b;stroke-width:0.211667;stroke-linecap:round;stroke-linejoin:round;stroke-dasharray:none;stroke-dashoffset:0;stroke-opacity:1"
         d="M -6.0854163,14.304392 V 13.775226"
         id="path24"
         inkscape:transform-center-y="-0.24769025" />
    </g>
    <g
       id="g26"
       transform="translate(1.9912852,-6.8653963)">
      <path
         id="path25"
         style="fill:none;stroke:#77767b;stroke-width:0.17788;stroke-linejoin:round"
         d="m -5.9097732,14.039809 a 0.17564311,0.28147676 0 0 1 -0.1756431,0.281476 0.17564311,0.28147676 0 0 1 -0.1756431,-0.281476 0.17564311,0.28147676 0 0 1 0.1756431,-0.281476 0.17564311,0.28147676 0 0 1 0.1756431,0.281476 z" />
      <path
         style="fill:none;stroke:#77767b;stroke-width:0.211667;stroke-linecap:round;stroke-linejoin:round;stroke-dasharray:none;stroke-dashoffset:0;stroke-opacity:1"
         d="m -6.0854163,14.221229 v 0.529166"
         id="path26" />
    </g>
  </g>
  <g
     inkscape:groupmode="layer"
     id="layer2"
     inkscape:label="Text">
    <text
       xml:space="preserve"
       style="font-style:normal;font-variant:normal;font-weight:normal;font-stretch:normal;font-size:3.88056px;line-height:1.4;font-family:'Cascadia Mono';-inkscape-font-specification:'Cascadia Mono';text-align:center;text-anchor:middle;fill:#000000;fill-opacity:1;stroke:none;stroke-width:0.211667;stroke-linecap:round;stroke-linejoin:round;stroke-dasharray:none;stroke-dashoffset:0;stroke-opacity:1"
       x="2.9876671"
       y="5.2674623"
       id="text31"><tspan
         sodipodi:role="line"
         id="tspan31"
         style="font-style:normal;font-variant:normal;font-weight:normal;font-stretch:normal;line-height:1.4;font-family:Impact;-inkscape-font-specification:Impact;text-align:start;text-anchor:start;fill:#000000;stroke-width:0.211667"
         x="2.9876671"
         y="5.2674623">   orrupt Cop</tspan><tspan
         sodipodi:role="line"
         style="font-style:normal;font-variant:normal;font-weight:normal;font-stretch:normal;line-height:1.4;font-family:Impact;-inkscape-font-specification:Impact;text-align:start;text-anchor:start;fill:#000000;stroke-width:0.211667"
         x="2.9876671"
         y="11.002009"
         id="tspan32">          leaning Cabinet</tspan></text>
  </g>
  <g
     inkscape:label="Calque 1"
     inkscape:groupmode="layer"
     id="layer1">
    <g
       id="g31"
       transform="rotate(65.146606,4.0944622,3.5251436)">
      <path
         id="path28"
         style="fill:#9141ac;stroke-width:0.529167;stroke-linejoin:round;stroke-dasharray:2.11666, 2.11666"
         inkscape:transform-center-x="-1.6007293"
         inkscape:transform-center-y="-0.61622788"
         d="M 6.8539432,3.1749998 A 0.26458332,0.26458332 0 0 0 6.5125897,3.0217469 0.26458332,0.26458332 0 0 0 6.3593367,3.3631004 1.5875,1.5875 0 0 1 5.4398193,5.4112214 1.5875,1.5875 0 0 1 3.9474199,5.2086343 1.5875,1.5875 0 0 1 3.8567654,5.1330888 1.5875,1.5875 0 0 1 3.7135814,4.9979068 0.29188007,0.29188007 0 0 0 3.4947131,4.9893662 0.29188007,0.29188007 0 0 0 3.3247933,5.3624903 2.1166666,2.1166666 0 0 0 3.5114183,5.5392032 2.1166666,2.1166666 0 0 0 3.7695296,5.7279835 2.1166666,2.1166666 0 0 0 5.6279198,5.9058277 2.1166666,2.1166666 0 0 0 6.8580524,3.1872588 0.26458332,0.26458332 0 0 0 6.8539432,3.1749998 Z" />
      <g
         id="g30">
        <path
           id="path29"
           style="fill:#a51d2d;stroke-width:0.529167;stroke-linejoin:round;stroke-dasharray:2.11666, 2.11666"
           d="m 2.8871625,1.3518696 a 2.1166666,2.1166666 0 0 0 -2.1166666,2.1166665 2.1166666,2.1166666 0 0 0 1.0914062,1.846916 v -0.19327 c 0,-0.135755 0.080922,-0.251754 0.197404,-0.302824 A 1.5875,1.5875 0 0 1 1.2996625,3.4685361 1.5875,1.5875 0 0 1 2.8871625,1.8810363 0.26458332,0.26458332 0 0 0 3.1517458,1.6164529 0.26458332,0.26458332 0 0 0 2.8871625,1.3518696 Z" />
        <path
           id="path30"
           style="fill:#77767b;stroke-width:0.707129;stroke-linejoin:round;stroke-dasharray:2.8285, 2.8285"
           d="m 2.1926312,4.7914531 c -0.047469,0 -0.092595,0.01005 -0.1333251,0.02791 -0.116482,0.05107 -0.197404,0.167069 -0.197404,0.302824 v 0.193269 0.468189 c 0,0.183224 0.1475056,0.330729 0.3307291,0.330729 H 3.846277 c 0.1832237,0 0.3307292,-0.147505 0.3307292,-0.330729 v -0.641305 -0.02015 c 0,-0.183224 -0.1475055,-0.33073 -0.3307292,-0.33073 H 3.75481 Z m 1.4366048,0.07493 a 1.5875,1.5875 0 0 1 -0.029972,0.01499 1.5875,1.5875 0 0 0 0.029972,-0.01499 z m -1.4267862,0.03049 a 1.5875,1.5875 0 0 0 0.044958,0.02015 1.5875,1.5875 0 0 1 -0.044958,-0.02015 z m 1.2960449,0.03152 a 1.5875,1.5875 0 0 1 -0.038757,0.0155 1.5875,1.5875 0 0 0 0.038757,-0.0155 z m -1.1498006,0.02997 a 1.5875,1.5875 0 0 0 0.059428,0.02015 1.5875,1.5875 0 0 1 -0.059428,-0.02015 z m 1.0133748,0.02067 a 1.5875,1.5875 0 0 1 -0.045475,0.01395 1.5875,1.5875 0 0 0 0.045475,-0.01395 z m -0.8531779,0.02842 a 1.5875,1.5875 0 0 0 0.055811,0.01344 1.5875,1.5875 0 0 1 -0.055811,-0.01344 z m 0.712618,0.0093 A 1.5875,1.5875 0 0 1 3.175,5.0270831 1.5875,1.5875 0 0 0 3.221509,5.0167531 Z m -0.5420858,0.02325 a 1.5875,1.5875 0 0 0 0.045475,0.0062 1.5875,1.5875 0 0 1 -0.045475,-0.0062 z m 0.394808,0.0026 a 1.5875,1.5875 0 0 1 -0.044442,0.0057 1.5875,1.5875 0 0 0 0.044442,-0.0057 z" />
        <circle
           style="fill:none;stroke:#77767b;stroke-width:0.211667;stroke-linejoin:round;stroke-dasharray:none;stroke-dashoffset:0;stroke-opacity:1"
           id="circle30"
           cx="3.0856004"
           cy="6.1805158"
           r="0.26458332" />
      </g>
    </g>
    <g
       id="g35"
       transform="matrix(0.12449732,-0.99221995,-0.99221995,-0.12449732,11.209988,13.255455)">
      <path
         id="path32"
         style="fill:#9141ac;stroke-width:0.529167;stroke-linejoin:round;stroke-dasharray:2.11666, 2.11666"
         inkscape:transform-center-x="-1.6007293"
         inkscape:transform-center-y="-0.61622788"
         d="M 6.8539432,3.1749998 A 0.26458332,0.26458332 0 0 0 6.5125897,3.0217469 0.26458332,0.26458332 0 0 0 6.3593367,3.3631004 1.5875,1.5875 0 0 1 5.4398193,5.4112214 1.5875,1.5875 0 0 1 3.9474199,5.2086343 1.5875,1.5875 0 0 1 3.8567654,5.1330888 1.5875,1.5875 0 0 1 3.7135814,4.9979068 0.29188007,0.29188007 0 0 0 3.4947131,4.9893662 0.29188007,0.29188007 0 0 0 3.3247933,5.3624903 2.1166666,2.1166666 0 0 0 3.5114183,5.5392032 2.1166666,2.1166666 0 0 0 3.7695296,5.7279835 2.1166666,2.1166666 0 0 0 5.6279198,5.9058277 2.1166666,2.1166666 0 0 0 6.8580524,3.1872588 0.26458332,0.26458332 0 0 0 6.8539432,3.1749998 Z" />
      <g
         id="g34">
        <path
           id="path33"
           style="fill:#a51d2d;stroke-width:0.529167;stroke-linejoin:round;stroke-dasharray:2.11666, 2.11666"
           d="m 2.8871625,1.3518696 a 2.1166666,2.1166666 0 0 0 -2.1166666,2.1166665 2.1166666,2.1166666 0 0 0 1.0914062,1.846916 v -0.19327 c 0,-0.135755 0.080922,-0.251754 0.197404,-0.302824 A 1.5875,1.5875 0 0 1 1.2996625,3.4685361 1.5875,1.5875 0 0 1 2.8871625,1.8810363 0.26458332,0.26458332 0 0 0 3.1517458,1.6164529 0.26458332,0.26458332 0 0 0 2.8871625,1.3518696 Z" />
        <path
           id="path34"
           style="fill:#77767b;stroke-width:0.707129;stroke-linejoin:round;stroke-dasharray:2.8285, 2.8285"
           d="m 2.1926312,4.7914531 c -0.047469,0 -0.092595,0.01005 -0.1333251,0.02791 -0.116482,0.05107 -0.197404,0.167069 -0.197404,0.302824 v 0.193269 0.468189 c 0,0.183224 0.1475056,0.330729 0.3307291,0.330729 H 3.846277 c 0.1832237,0 0.3307292,-0.147505 0.3307292,-0.330729 v -0.641305 -0.02015 c 0,-0.183224 -0.1475055,-0.33073 -0.3307292,-0.33073 H 3.75481 Z m 1.4366048,0.07493 a 1.5875,1.5875 0 0 1 -0.029972,0.01499 1.5875,1.5875 0 0 0 0.029972,-0.01499 z m -1.4267862,0.03049 a 1.5875,1.5875 0 0 0 0.044958,0.02015 1.5875,1.5875 0 0 1 -0.044958,-0.02015 z m 1.2960449,0.03152 a 1.5875,1.5875 0 0 1 -0.038757,0.0155 1.5875,1.5875 0 0 0 0.038757,-0.0155 z m -1.1498006,0.02997 a 1.5875,1.5875 0 0 0 0.059428,0.02015 1.5875,1.5875 0 0 1 -0.059428,-0.02015 z m 1.0133748,0.02067 a 1.5875,1.5875 0 0 1 -0.045475,0.01395 1.5875,1.5875 0 0 0 0.045475,-0.01395 z m -0.8531779,0.02842 a 1.5875,1.5875 0 0 0 0.055811,0.01344 1.5875,1.5875 0 0 1 -0.055811,-0.01344 z m 0.712618,0.0093 A 1.5875,1.5875 0 0 1 3.175,5.0270831 1.5875,1.5875 0 0 0 3.221509,5.0167531 Z m -0.5420858,0.02325 a 1.5875,1.5875 0 0 0 0.045475,0.0062 1.5875,1.5875 0 0 1 -0.045475,-0.0062 z m 0.394808,0.0026 a 1.5875,1.5875 0 0 1 -0.044442,0.0057 1.5875,1.5875 0 0 0 0.044442,-0.0057 z" />
        <circle
           style="fill:none;stroke:#77767b;stroke-width:0.211667;stroke-linejoin:round;stroke-dasharray:none;stroke-dashoffset:0;stroke-opacity:1"
           id="circle34"
           cx="3.0856004"
           cy="6.1805158"
           r="0.26458332" />
      </g>
    </g>
    <path
       id="path35"
       style="fill:none;stroke:#77767b;stroke-width:0.17788;stroke-linejoin:round"
       d="M 1.0134724,4.5310806 A 0.17564311,0.28147676 11.179736 0 0 0.895737,4.220891 0.17564311,0.28147676 11.179736 0 0 0.6688523,4.4629707 0.17564311,0.28147676 11.179736 0 0 0.7865877,4.7731603 0.17564311,0.28147676 11.179736 0 0 1.0134724,4.5310806 Z"
       inkscape:transform-center-y="0.1945495"
       inkscape:transform-center-x="0.03845035" />
    <path
       style="fill:none;stroke:#77767b;stroke-width:0.211667;stroke-linecap:round;stroke-linejoin:round;stroke-dasharray:none;stroke-dashoffset:0;stroke-opacity:1"
       d="M 0.8796127,4.3024762 1.1306541,3.8366491"
       id="path36"
       inkscape:transform-center-y="-0.2180428"
       inkscape:transform-center-x="-0.1175066" />
    <path
       id="path37"
       style="fill:none;stroke:#77767b;stroke-width:0.17788;stroke-linejoin:round"
       d="M 0.976483,5.4388802 A 0.17564311,0.28147676 0 0 0 0.8008399,5.1574042 0.17564311,0.28147676 0 0 0 0.6251968,5.4388802 0.17564311,0.28147676 0 0 0 0.8008399,5.7203562 0.17564311,0.28147676 0 0 0 0.976483,5.4388802 Z"
       inkscape:transform-center-y="0.19831275" />
    <path
       style="fill:none;stroke:#77767b;stroke-width:0.211667;stroke-linecap:round;stroke-linejoin:round;stroke-dasharray:none;stroke-dashoffset:0;stroke-opacity:1"
       d="M 0.8035905,5.2570705 V 4.7279045"
       id="path38"
       inkscape:transform-center-y="-0.24769025" />
    <path
       id="path39"
       style="fill:none;stroke:#77767b;stroke-width:0.17788;stroke-linejoin:round"
       d="M 1.1317973,6.3177074 A 0.28147676,0.17564311 70.23432 0 0 0.8713146,6.112213 0.28147676,0.17564311 70.23432 0 0 0.8012076,6.4365033 0.28147676,0.17564311 70.23432 0 0 1.0616905,6.6419978 0.28147676,0.17564311 70.23432 0 0 1.1317973,6.3177074 Z"
       inkscape:transform-center-y="0.18662888"
       inkscape:transform-center-x="-0.067064278" />
    <path
       style="fill:none;stroke:#77767b;stroke-width:0.211667;stroke-linecap:round;stroke-linejoin:round;stroke-dasharray:none;stroke-dashoffset:0;stroke-opacity:1"
       d="M 0.8934015,6.1657106 0.8112546,5.6429597"
       id="path40"
       inkscape:transform-center-y="-0.2446875"
       inkscape:transform-center-x="0.03845105" />
    <path
       id="path41"
       style="fill:none;stroke:#77767b;stroke-width:0.17788;stroke-linejoin:round"
       d="M 1.6044968,7.1234309 A 0.28147676,0.17564311 65.72455 0 0 1.3286627,6.9390542 0.28147676,0.17564311 65.72455 0 0 1.2842715,7.2678531 0.28147676,0.17564311 65.72455 0 0 1.5601057,7.4522297 0.28147676,0.17564311 65.72455 0 0 1.6044968,7.1234309 Z"
       inkscape:transform-center-y="0.18077783"
       inkscape:transform-center-x="-0.08153104" />
    <path
       style="fill:none;stroke:#77767b;stroke-width:0.211667;stroke-linecap:round;stroke-linejoin:round;stroke-dasharray:none;stroke-dashoffset:0;stroke-opacity:1"
       d="M 1.0662921,6.598187 1.3340616,7.0546036"
       id="path42"
       inkscape:transform-center-y="0.21363795"
       inkscape:transform-center-x="-0.12533665" />
    <path
       id="path43"
       style="fill:none;stroke:#77767b;stroke-width:0.17788;stroke-linejoin:round"
       d="M 2.8258342,8.4955084 A 0.28147676,0.17564311 42.109754 0 0 2.49924,8.4370667 0.28147676,0.17564311 42.109754 0 0 2.5902782,8.7561141 0.28147676,0.17564311 42.109754 0 0 2.9168725,8.8145558 0.28147676,0.17564311 42.109754 0 0 2.8258342,8.4955084 Z"
       inkscape:transform-center-y="0.13297922"
       inkscape:transform-center-x="-0.14712063" />
    <path
       style="fill:none;stroke:#77767b;stroke-width:0.211667;stroke-linecap:round;stroke-linejoin:round;stroke-dasharray:none;stroke-dashoffset:0;stroke-opacity:1"
       d="M 2.1758895,8.134457 2.563262,8.4949556"
       id="path44"
       inkscape:transform-center-y="0.16874095"
       inkscape:transform-center-x="-0.18132005" />
    <path
       id="path45"
       style="fill:none;stroke:#77767b;stroke-width:0.17788;stroke-linejoin:round"
       d="M 2.1672986,7.8517605 A 0.28147676,0.17564311 56.293019 0 0 1.8649795,7.7150768 0.28147676,0.17564311 56.293019 0 0 1.8750683,8.0467053 0.28147676,0.17564311 56.293019 0 0 2.1773873,8.1833889 0.28147676,0.17564311 56.293019 0 0 2.1672986,7.8517605 Z"
       inkscape:transform-center-y="0.16497369"
       inkscape:transform-center-x="-0.11005281" />
    <path
       style="fill:none;stroke:#77767b;stroke-width:0.211667;stroke-linecap:round;stroke-linejoin:round;stroke-dasharray:none;stroke-dashoffset:0;stroke-opacity:1"
       d="M 1.5756987,7.4004849 1.9067963,7.8132694"
       id="path46"
       inkscape:transform-center-y="0.1932148"
       inkscape:transform-center-x="-0.1549791" />
    <path
       id="path47"
       style="fill:none;stroke:#77767b;stroke-width:0.17788;stroke-linejoin:round"
       d="M 3.64958,8.9348991 A 0.28147676,0.17564311 26.736021 0 0 3.3191783,8.9651333 0.28147676,0.17564311 26.736021 0 0 3.4915432,9.2486288 0.28147676,0.17564311 26.736021 0 0 3.8219446,9.2183945 0.28147676,0.17564311 26.736021 0 0 3.64958,8.9348991 Z"
       inkscape:transform-center-y="0.08921703"
       inkscape:transform-center-x="-0.17711086" />
    <path
       style="fill:none;stroke:#77767b;stroke-width:0.211667;stroke-linecap:round;stroke-linejoin:round;stroke-dasharray:none;stroke-dashoffset:0;stroke-opacity:1"
       d="M 2.9106113,8.7658602 3.3778114,9.0143363"
       id="path48"
       inkscape:transform-center-y="0.1163059"
       inkscape:transform-center-x="-0.21868545" />
    <path
       style="fill:none;stroke:#77767b;stroke-width:0.211667;stroke-linecap:round;stroke-linejoin:round;stroke-dasharray:none;stroke-dashoffset:0;stroke-opacity:1"
       d="M 3.7982328,9.1842233 4.3017204,9.3470625"
       id="path50"
       inkscape:transform-center-y="0.07622125"
       inkscape:transform-center-x="-0.2356708" />
    <path
       id="path52"
       style="fill:none;stroke:#77767b;stroke-width:0.17788;stroke-linejoin:round"
       d="M 4.541042,9.1976808 A 0.28147676,0.17564311 7.3101446 0 0 4.2395048,9.3360812 0.28147676,0.17564311 7.3101446 0 0 4.4963443,9.5461116 0.28147676,0.17564311 7.3101446 0 0 4.7978813,9.4077113 0.28147676,0.17564311 7.3101446 0 0 4.541042,9.1976808 Z"
       inkscape:transform-center-y="0.025233339"
       inkscape:transform-center-x="-0.19670086" />
    <path
       style="fill:none;stroke:#77767b;stroke-width:0.211667;stroke-linecap:round;stroke-linejoin:round;stroke-dasharray:none;stroke-dashoffset:0;stroke-opacity:1"
       d="m 4.7379704,9.3946113 0.5276019,0.040651"
       id="path53"
       inkscape:transform-center-y="0.01902775"
       inkscape:transform-center-x="-0.24695815" />
  </g>
</svg>
