<?xml version="1.0" encoding="UTF-8" standalone="no"?>
<!-- Created with Inkscape (http://www.inkscape.org/) -->

<svg
   width="32"
   height="32"
   viewBox="0 0 8.4666665 8.4666665"
   version="1.1"
   id="svg1"
   inkscape:version="1.3.2 (091e20e, 2023-11-25, custom)"
   sodipodi:docname="cleaning_progression.svg"
   xmlns:inkscape="http://www.inkscape.org/namespaces/inkscape"
   xmlns:sodipodi="http://sodipodi.sourceforge.net/DTD/sodipodi-0.dtd"
   xmlns="http://www.w3.org/2000/svg"
   xmlns:svg="http://www.w3.org/2000/svg">
  <sodipodi:namedview
     id="namedview1"
     pagecolor="#b8b8b8"
     bordercolor="#000000"
     borderopacity="0.25"
     inkscape:showpageshadow="2"
     inkscape:pageopacity="0.0"
     inkscape:pagecheckerboard="true"
     inkscape:deskcolor="#d1d1d1"
     inkscape:document-units="px"
     showgrid="true"
     inkscape:zoom="24.048138"
     inkscape:cx="16.674888"
     inkscape:cy="16.654096"
     inkscape:window-width="2560"
     inkscape:window-height="1369"
     inkscape:window-x="1672"
     inkscape:window-y="-8"
     inkscape:window-maximized="1"
     inkscape:current-layer="layer1">
    <inkscape:grid
       id="grid1"
       units="px"
       originx="0"
       originy="0"
       spacingx="0.26458333"
       spacingy="0.26458333"
       empcolor="#0099e5"
       empopacity="0.30196078"
       color="#000000"
       opacity="0.14901961"
       empspacing="4"
       dotted="false"
       gridanglex="30"
       gridanglez="30"
       visible="true" />
  </sodipodi:namedview>
  <defs
     id="defs1" />
  <g
     inkscape:label="Calque 1"
     inkscape:groupmode="layer"
     id="layer1">
    <path
       d="M 4.2333332,0 A 4.2333331,4.2333331 0 0 0 0,4.2333332 4.2333331,4.2333331 0 0 0 4.2333332,8.4666665 4.2333331,4.2333331 0 0 0 8.4666665,4.2333332 4.2333331,4.2333331 0 0 0 4.2333332,0 Z m 0,1.0583333 a 3.1749997,3.1749997 0 0 1 3.175,3.1749999 3.1749997,3.1749997 0 0 1 -3.175,3.175 3.1749997,3.1749997 0 0 1 -3.1749999,-3.175 3.1749997,3.1749997 0 0 1 3.1749999,-3.1749999 z"
       style="fill:#ffffff;stroke-width:0.132292"
       id="path2" />
  </g>
</svg>
